# xmcd CD database file
#
# Track frame offsets:
#	150
#	20077
#	38650
#	49822
#	66482
#	87560
#	103552
#	114767
#	133657
#	151137
#	169857
#	181707
#	200860
#	223245
#	238890
#	257545
#	275227
#
# Disc length: 3897 seconds
#
# Revision: 1
# Processed by: cddbd v1.5.2PL0 Copyright (c) Steve Scherf et al.
# Submitted via: CDex 1.51
#
DISCID=fd0f3711
DTITLE=Various Artist - Narada Lotus - Romance, Music for Piano
DYEAR=1994
DGENRE=New Age
TTITLE0=The Shape of her Face - Michael Whalen
TTITLE1=Old family portrait - Kostia
TTITLE2=Sister Bay - Fred Simon
TTITLE3=I always come back to you - Douglas Mc Keehan
TTITLE4=Sacred Dance - Ira Stein
TTITLE5=Reasons for moving - Fred Simon
TTITLE6=Minor Truths - Fred Simon
TTITLE7=The Beginnings of Love - Ira Stein
TTITLE8=Melusina - Ira Stein
TTITLE9=In the path of the heart - Kostia
TTITLE10=First Light - Michael Whalen
TTITLE11=Over Shallow Water - Scooter Pietsch
TTITLE12=A State of Grace - Michael Gettel
TTITLE13=First Kiss - David Arkenstone
TTITLE14=Summer Fields - Wayne Gratz
TTITLE15=As I fall - Wayne Gratz
TTITLE16=Land of Seduction - Michael Whalen
EXTD=YEAR: 1994
EXTT0=
EXTT1=
EXTT2=
EXTT3=
EXTT4=
EXTT5=
EXTT6=
EXTT7=
EXTT8=
EXTT9=
EXTT10=
EXTT11=
EXTT12=
EXTT13=
EXTT14=
EXTT15=
EXTT16=
PLAYORDER=
